<?xml version="1.0" standalone="no"?><svg xmlns="http://www.w3.org/2000/svg" viewBox="0 0 1440 320"><path fill="#0099ff" fill-opacity="0.05" d="M0,192L26.7,197.3C53.3,203,107,213,160,181.3C213.3,149,267,75,320,69.3C373.3,64,427,128,480,133.3C533.3,139,587,85,640,80C693.3,75,747,117,800,149.3C853.3,181,907,203,960,202.7C1013.3,203,1067,181,1120,186.7C1173.3,192,1227,224,1280,224C1333.3,224,1387,192,1413,176L1440,160L1440,320L1413.3,320C1386.7,320,1333,320,1280,320C1226.7,320,1173,320,1120,320C1066.7,320,1013,320,960,320C906.7,320,853,320,800,320C746.7,320,693,320,640,320C586.7,320,533,320,480,320C426.7,320,373,320,320,320C266.7,320,213,320,160,320C106.7,320,53,320,27,320L0,320Z"></path></svg>